<svg width="32" height="32" viewBox="0 0 32 32" fill="none" xmlns="http://www.w3.org/2000/svg">
<path d="M5.67857 22.1248C4.18765 19.6115 3.66551 16.6403 4.21021 13.7692C4.75491 10.8982 6.32897 8.32472 8.63682 6.5321C10.9447 4.73947 13.8276 3.85099 16.7441 4.0335C19.6607 4.21601 22.4103 5.45696 24.4767 7.52331C26.543 9.58967 27.784 12.3393 27.9665 15.2559C28.149 18.1724 27.2606 21.0553 25.468 23.3632C23.6754 25.671 21.1019 27.2451 18.2308 27.7898C15.3598 28.3345 12.3886 27.8124 9.87529 26.3215L9.87531 26.3214L5.73074 27.5055C5.55927 27.5545 5.37781 27.5568 5.20518 27.512C5.03254 27.4673 4.87501 27.3772 4.74891 27.2511C4.6228 27.125 4.53272 26.9675 4.48798 26.7948C4.44325 26.6222 4.4455 26.4408 4.49449 26.2693L5.67866 22.1247L5.67857 22.1248Z" stroke="#9D9F9F" stroke-width="2" stroke-linecap="round" stroke-linejoin="round"/>
<path d="M9.99982 17.505C10.8282 17.505 11.4998 16.8334 11.4998 16.005C11.4998 15.1766 10.8282 14.505 9.99982 14.505C9.17139 14.505 8.49982 15.1766 8.49982 16.005C8.49982 16.8334 9.17139 17.505 9.99982 17.505Z" fill="#9D9F9F"/>
<path d="M16 17.505C16.8284 17.505 17.5 16.8334 17.5 16.005C17.5 15.1766 16.8284 14.505 16 14.505C15.1716 14.505 14.5 15.1766 14.5 16.005C14.5 16.8334 15.1716 17.505 16 17.505Z" fill="#9D9F9F"/>
<path d="M22.0002 17.505C22.8286 17.505 23.5002 16.8334 23.5002 16.005C23.5002 15.1766 22.8286 14.505 22.0002 14.505C21.1718 14.505 20.5002 15.1766 20.5002 16.005C20.5002 16.8334 21.1718 17.505 22.0002 17.505Z" fill="#9D9F9F"/>
</svg>
