<svg width="34" height="37" viewBox="0 0 34 37" fill="none" xmlns="http://www.w3.org/2000/svg">
<g filter="url(#filter0_d)">
<path d="M6.67857 22.1248C5.18765 19.6115 4.66551 16.6403 5.21021 13.7692C5.75491 10.8982 7.32897 8.32472 9.63682 6.5321C11.9447 4.73947 14.8276 3.85099 17.7441 4.0335C20.6607 4.21601 23.4103 5.45696 25.4767 7.52331C27.543 9.58967 28.784 12.3393 28.9665 15.2559C29.149 18.1724 28.2606 21.0553 26.468 23.3632C24.6754 25.671 22.1019 27.2451 19.2308 27.7898C16.3598 28.3345 13.3886 27.8124 10.8753 26.3215L10.8753 26.3214L6.73074 27.5055C6.55927 27.5545 6.37781 27.5568 6.20518 27.512C6.03254 27.4673 5.87501 27.3772 5.74891 27.2511C5.6228 27.125 5.53272 26.9675 5.48798 26.7948C5.44325 26.6222 5.4455 26.4408 5.49449 26.2693L6.67866 22.1247L6.67857 22.1248Z" stroke="#9D9F9F" stroke-width="2" stroke-linecap="round" stroke-linejoin="round"/>
<path d="M10.9998 17.505C11.8282 17.505 12.4998 16.8334 12.4998 16.005C12.4998 15.1766 11.8282 14.505 10.9998 14.505C10.1714 14.505 9.49982 15.1766 9.49982 16.005C9.49982 16.8334 10.1714 17.505 10.9998 17.505Z" fill="#9D9F9F"/>
<path d="M17 17.505C17.8284 17.505 18.5 16.8334 18.5 16.005C18.5 15.1766 17.8284 14.505 17 14.505C16.1716 14.505 15.5 15.1766 15.5 16.005C15.5 16.8334 16.1716 17.505 17 17.505Z" fill="#9D9F9F"/>
<path d="M23.0002 17.505C23.8286 17.505 24.5002 16.8334 24.5002 16.005C24.5002 15.1766 23.8286 14.505 23.0002 14.505C22.1718 14.505 21.5002 15.1766 21.5002 16.005C21.5002 16.8334 22.1718 17.505 23.0002 17.505Z" fill="#9D9F9F"/>
</g>
<defs>
<filter id="filter0_d" x="-3" y="0" width="40" height="40" filterUnits="userSpaceOnUse" color-interpolation-filters="sRGB">
<feFlood flood-opacity="0" result="BackgroundImageFix"/>
<feColorMatrix in="SourceAlpha" type="matrix" values="0 0 0 0 0 0 0 0 0 0 0 0 0 0 0 0 0 0 127 0"/>
<feOffset dy="4"/>
<feGaussianBlur stdDeviation="2"/>
<feColorMatrix type="matrix" values="0 0 0 0 0 0 0 0 0 0 0 0 0 0 0 0 0 0 0.25 0"/>
<feBlend mode="normal" in2="BackgroundImageFix" result="effect1_dropShadow"/>
<feBlend mode="normal" in="SourceGraphic" in2="effect1_dropShadow" result="shape"/>
</filter>
</defs>
</svg>
