<svg width="93" height="78" viewBox="0 0 93 78" fill="none" xmlns="http://www.w3.org/2000/svg">
<path d="M90.9893 55.3819C92.0998 43.7304 85.2075 33.549 75.5951 32.641C65.9826 31.7331 57.2899 40.4424 56.1795 52.0939C55.069 63.7453 61.9613 73.9268 71.5738 74.8347C81.1862 75.7427 89.8789 67.0334 90.9893 55.3819Z" fill="#52267E"/>
<path d="M88.5868 55.5262C89.6082 44.8084 84.4528 35.5546 77.0717 34.8574C69.6907 34.1602 62.879 42.2836 61.8576 53.0015C60.8361 63.7194 65.9916 72.9731 73.3726 73.6703C80.7537 74.3675 87.5653 66.2441 88.5868 55.5262Z" fill="#FB725C"/>
<path d="M90.8475 56.1397C91.869 45.4218 86.5559 36.1532 78.9804 35.4376C71.4048 34.7221 64.4356 42.8306 63.4141 53.5484C62.3926 64.2663 67.7057 73.535 75.2813 74.2505C82.8568 74.9661 89.826 66.8576 90.8475 56.1397Z" fill="#995EB3"/>
<path d="M30.7973 51.1609C30.13 59.7691 23.7039 67.1377 15.6417 67.5801C6.52779 68.0796 -0.933894 59.7359 0.0950736 49.0099C1.11203 38.422 9.85892 31.4853 18.5831 33.1873C26.3224 34.6966 31.4539 42.6418 30.7973 51.1609Z" fill="#52267E"/>
<path d="M34.4513 51.4611C33.784 60.0693 27.2739 67.4312 19.0929 67.8643C9.84688 68.3612 2.26909 60.0015 3.29805 49.2755C4.31768 38.6877 13.1847 31.7616 22.0397 33.4728C29.8951 34.9901 35.1093 42.942 34.4513 51.4611Z" fill="#995EB3"/>
<path d="M29.5695 51.0984C29.093 57.1224 24.9251 62.1366 19.9084 62.2682C14.4539 62.4103 10.1872 56.8128 10.8212 49.8096C11.4498 42.8662 16.5906 38.038 21.8796 38.9029C26.7508 39.7001 30.0432 45.1182 29.5695 51.0984Z" fill="#EBB1F0"/>
<path d="M10.8345 50.5643C11.4631 43.7046 17.127 38.9521 23.0206 39.8276C24.1548 39.9957 25.2485 40.369 26.2476 40.9291C24.9066 39.8561 23.3059 39.1528 21.6059 38.8896C15.5883 37.9596 9.80015 42.7293 9.15688 49.6621C8.6444 55.1919 11.6486 59.9324 16.05 61.5892C12.5934 59.5312 10.3967 55.3407 10.8345 50.5643Z" fill="#B59B9A"/>
<path d="M22.5896 15.4819C30.2795 4.81308 41.5234 2.12128 44.3434 1.53137C48.914 1.87426 53.1724 3.97013 56.2212 7.37733C51.6302 8.06157 43.3758 9.98542 35.9355 16.1463C33.4892 18.1724 29.8564 21.2495 27.5276 26.6424C26.3685 29.3393 25.691 32.2169 25.5257 35.1456L16.0501 34.4813C16.1982 31.1332 17.0137 23.2185 22.5896 15.4819Z" fill="#35346A"/>
<path d="M73.8471 32.5946C75.7048 20.9944 71.0738 9.85785 62.2268 4.45432C54.6984 -0.138739 46.7229 1.00919 44.2099 1.47687C46.4373 2.26076 57.3542 6.36622 62.7606 18.009C66.296 25.626 65.6967 32.6504 65.2537 35.6917L73.8471 32.5946Z" fill="#995EB3"/>
<path d="M16.0501 35.5441C16.0501 16.6776 31.0922 1.39844 49.6817 1.39844" stroke="#995EB3" stroke-miterlimit="10"/>
<path d="M37.4783 62.7266V74.8171" stroke="black" stroke-width="2" stroke-miterlimit="10"/>
<path d="M44.0457 62.5578L44.0684 73.6412" stroke="black" stroke-width="2" stroke-miterlimit="10"/>
<path d="M50.2622 59.3678V71.4583" stroke="black" stroke-width="2" stroke-miterlimit="10"/>
<path d="M33.6893 62.8315C35.7167 63.0576 37.7597 63.1127 39.7964 62.9963C42.0652 62.8634 43.5065 62.7811 45.2909 62.1539C46.7015 61.657 47.2514 61.1973 50.1942 59.3784C52.0506 58.2318 53.6534 57.2872 54.8866 56.5777" stroke="black" stroke-width="2" stroke-miterlimit="10"/>
<path d="M33.5466 60.6685C35.574 60.8935 37.617 60.9482 39.6536 60.8319C41.9224 60.6991 43.3638 60.6167 45.1481 59.9896C46.5588 59.4927 47.1087 59.0343 50.0514 57.2154C51.9078 56.0675 53.5107 55.1241 54.7438 54.4133" stroke="black" stroke-width="2" stroke-miterlimit="10"/>
<path d="M48.7742 73.725C50.0317 73.725 51.051 73.2176 51.051 72.5916C51.051 71.9657 50.0317 71.4583 48.7742 71.4583C47.5168 71.4583 46.4974 71.9657 46.4974 72.5916C46.4974 73.2176 47.5168 73.725 48.7742 73.725Z" fill="black" stroke="black" stroke-width="2" stroke-miterlimit="10"/>
<path d="M36.0769 77C37.3343 77 38.3537 76.4926 38.3537 75.8667C38.3537 75.2407 37.3343 74.7333 36.0769 74.7333C34.8194 74.7333 33.8 75.2407 33.8 75.8667C33.8 76.4926 34.8194 77 36.0769 77Z" fill="black" stroke="black" stroke-width="2" stroke-miterlimit="10"/>
<path d="M42.5563 75.8241C43.8138 75.8241 44.8331 75.3167 44.8331 74.6908C44.8331 74.0649 43.8138 73.5575 42.5563 73.5575C41.2989 73.5575 40.2795 74.0649 40.2795 74.6908C40.2795 75.3167 41.2989 75.8241 42.5563 75.8241Z" fill="black" stroke="black" stroke-width="2" stroke-miterlimit="10"/>
<path d="M39.1317 29.7739V40.5757" stroke="black" stroke-width="2" stroke-miterlimit="10"/>
<path d="M47.0446 27.1486V37.9503" stroke="black" stroke-width="2" stroke-miterlimit="10"/>
<path d="M36.6294 29.9865C38.0709 30.0395 39.5143 29.9661 40.9428 29.7673C42.535 29.5454 43.5453 29.4045 44.7664 28.8465C45.7313 28.4054 46.093 28.0387 48.0602 26.544C49.3027 25.602 50.377 24.8168 51.2045 24.2349" stroke="black" stroke-width="2" stroke-miterlimit="10"/>
<path d="M36.4038 27.68C37.8452 27.7326 39.2885 27.6597 40.7172 27.4621C42.3094 27.2402 43.3196 27.098 44.5408 26.54C45.5057 26.0989 45.8674 25.7322 47.8346 24.2388C49.0757 23.2955 50.1514 22.5116 50.9788 21.9283" stroke="black" stroke-width="2" stroke-miterlimit="10"/>
<path d="M36.9097 43.6515C38.5534 43.6515 39.8858 42.896 39.8858 41.9641C39.8858 41.0322 38.5534 40.2767 36.9097 40.2767C35.266 40.2767 33.9336 41.0322 33.9336 41.9641C33.9336 42.896 35.266 43.6515 36.9097 43.6515Z" fill="black" stroke="black" stroke-width="2" stroke-miterlimit="10"/>
<path d="M45.1227 40.6501C46.7664 40.6501 48.0989 39.8946 48.0989 38.9627C48.0989 38.0308 46.7664 37.2754 45.1227 37.2754C43.4791 37.2754 42.1466 38.0308 42.1466 38.9627C42.1466 39.8946 43.4791 40.6501 45.1227 40.6501Z" fill="black" stroke="black" stroke-width="2" stroke-miterlimit="10"/>
<path d="M17.1178 49.0988V68.231" stroke="black" stroke-width="2" stroke-miterlimit="10"/>
<path d="M13.1807 72.2169C16.0921 72.2169 18.4523 70.8785 18.4523 69.2275C18.4523 67.5765 16.0921 66.2381 13.1807 66.2381C10.2693 66.2381 7.90907 67.5765 7.90907 69.2275C7.90907 70.8785 10.2693 72.2169 13.1807 72.2169Z" fill="black"/>
<path d="M14.3151 50.159C14.3151 50.159 16.05 49.3619 19.3865 48.4318C22.723 47.5018 22.8564 45.5089 22.8564 45.5089" stroke="black" stroke-width="2" stroke-miterlimit="10"/>
<path d="M13.7813 47.7676C13.7813 47.7676 15.5162 46.9704 18.8527 46.0403C22.1892 45.1103 22.3226 43.1174 22.3226 43.1174" stroke="black" stroke-width="2" stroke-miterlimit="10"/>
</svg>
