<svg width="34" height="34" viewBox="0 0 34 34" fill="none" xmlns="http://www.w3.org/2000/svg">
<path d="M19.8229 23.7879V23.9721C19.8682 23.9577 19.9125 23.9405 19.9556 23.9206L19.8229 23.7879Z" fill="#9D9F9F"/>
<path fill-rule="evenodd" clip-rule="evenodd" d="M14.4062 23.7364V23.7879L14.4415 23.7527C14.4288 23.7495 14.4168 23.744 14.4062 23.7364V23.7364ZM14.4062 23.7364V23.7879L14.4415 23.7527C14.4288 23.7495 14.4168 23.744 14.4062 23.7364V23.7364ZM14.4062 23.7364V23.7879L14.4415 23.7527C14.4288 23.7495 14.4168 23.744 14.4062 23.7364V23.7364ZM14.4062 23.7364V23.7879L14.4415 23.7527C14.4288 23.7495 14.4168 23.744 14.4062 23.7364V23.7364ZM14.4062 23.7364V23.7879L14.4415 23.7527C14.4288 23.7495 14.4168 23.744 14.4062 23.7364V23.7364ZM14.4062 23.7364V23.7879L14.4415 23.7527C14.4288 23.7495 14.4168 23.744 14.4062 23.7364V23.7364ZM14.4062 23.7364V23.7879L14.4415 23.7527C14.4288 23.7495 14.4168 23.744 14.4062 23.7364V23.7364ZM14.4062 23.7364V23.7879L14.4415 23.7527C14.4288 23.7495 14.4168 23.744 14.4062 23.7364V23.7364ZM14.4062 23.7364V23.7879L14.4415 23.7527C14.4288 23.7495 14.4168 23.744 14.4062 23.7364V23.7364ZM14.4062 23.7364V23.7879L14.4415 23.7527C14.4288 23.7495 14.4168 23.744 14.4062 23.7364V23.7364ZM14.4062 23.7364V23.7879L14.4415 23.7527C14.4288 23.7495 14.4168 23.744 14.4062 23.7364V23.7364ZM14.4062 23.7364V23.7879L14.4415 23.7527C14.4288 23.7495 14.4168 23.744 14.4062 23.7364V23.7364ZM14.4062 23.7364V23.7879L14.4415 23.7527C14.4288 23.7495 14.4168 23.744 14.4062 23.7364V23.7364ZM14.4062 23.7364V23.7879L14.4415 23.7527C14.4288 23.7495 14.4168 23.744 14.4062 23.7364V23.7364ZM14.4062 23.7364V23.7879L14.4415 23.7527C14.4288 23.7495 14.4168 23.744 14.4062 23.7364V23.7364ZM7.76271 4.06854C6.28718 5.13055 5.00005 6.43232 3.9548 7.91978L5.89938 9.86436C6.89592 8.33797 8.18902 7.02738 9.70188 6.01041L7.76271 4.06854ZM26.5937 3.95479L24.6491 5.89937C26.1755 6.89246 27.4869 8.18181 28.5058 9.69103L30.445 7.75187C29.382 6.2802 28.0803 4.99678 26.5937 3.95479V3.95479ZM33.2725 14.5416H30.5181C30.8829 16.3288 30.8829 18.1712 30.5181 19.9583H33.2725C33.5758 18.1655 33.5758 16.3345 33.2725 14.5416ZM5.89938 24.6356L3.9548 26.5937C5.00005 28.0812 6.28718 29.3829 7.76271 30.445L9.70188 28.4895C8.18902 27.4726 6.89592 26.162 5.89938 24.6356V24.6356ZM28.4923 24.7981C27.4734 26.3073 26.1619 27.5967 24.6356 28.5898L26.5937 30.5452C28.0812 29.4999 29.383 28.2128 30.445 26.7373L28.4923 24.7981ZM14.409 30.4856V33.2454C16.1994 33.5613 18.03 33.5769 19.8256 33.2914V30.5452C18.0348 30.8911 16.1925 30.8727 14.409 30.491V30.4856ZM17.25 1C16.2966 1.00026 15.3451 1.08364 14.4062 1.24917V4.00895C16.1898 3.62723 18.032 3.60881 19.8229 3.95479V1.20312C18.9719 1.06808 18.1116 1.00017 17.25 1V1ZM3.97918 14.5416H1.22751C0.924162 16.3345 0.924162 18.1655 1.22751 19.9583H3.98189C3.61709 18.1712 3.61709 16.3288 3.98189 14.5416H3.97918ZM14.4062 23.7364V23.7879L14.4415 23.7527C14.4288 23.7495 14.4168 23.744 14.4062 23.7364V23.7364ZM14.4062 23.7364V23.7879L14.4415 23.7527C14.4288 23.7495 14.4168 23.744 14.4062 23.7364V23.7364ZM14.4062 23.7364V23.7879L14.4415 23.7527C14.4288 23.7495 14.4168 23.744 14.4062 23.7364V23.7364ZM14.4062 23.7364V23.7879L14.4415 23.7527C14.4288 23.7495 14.4168 23.744 14.4062 23.7364V23.7364ZM14.4062 23.7364V23.7879L14.4415 23.7527C14.4288 23.7495 14.4168 23.744 14.4062 23.7364V23.7364ZM14.4062 23.7364V23.7879L14.4415 23.7527C14.4288 23.7495 14.4168 23.744 14.4062 23.7364V23.7364ZM14.4062 23.7364V23.7879L14.4415 23.7527C14.4288 23.7495 14.4168 23.744 14.4062 23.7364V23.7364ZM14.4062 23.7364V23.7879L14.4415 23.7527C14.4288 23.7495 14.4168 23.744 14.4062 23.7364V23.7364ZM14.4062 23.7364V23.7879L14.4415 23.7527C14.4288 23.7495 14.4168 23.744 14.4062 23.7364V23.7364ZM14.4062 23.7364V23.7879L14.4415 23.7527C14.4288 23.7495 14.4168 23.744 14.4062 23.7364V23.7364ZM14.4062 23.7364V23.7879L14.4415 23.7527C14.4288 23.7495 14.4168 23.744 14.4062 23.7364V23.7364ZM14.4062 23.7364V23.7879L14.4415 23.7527C14.4288 23.7495 14.4168 23.744 14.4062 23.7364V23.7364ZM14.4062 23.7364V23.7879L14.4415 23.7527C14.4288 23.7495 14.4168 23.744 14.4062 23.7364V23.7364ZM14.4062 23.7364V23.7879L14.4415 23.7527C14.4288 23.7495 14.4168 23.744 14.4062 23.7364V23.7364Z" stroke="#9D9F9F" stroke-miterlimit="10"/>
<path fill-rule="evenodd" clip-rule="evenodd" d="M30.5181 14.5416C30.1671 12.8106 29.4777 11.1659 28.4896 9.70186C27.4707 8.19264 26.1592 6.90329 24.6329 5.9102C22.4072 4.46215 19.805 3.70039 17.1498 3.71965C14.4946 3.73891 11.9036 4.53835 9.69918 6.01854C8.18996 7.03742 6.90061 8.34888 5.90752 9.8752C4.47742 12.073 3.71616 14.6387 3.71616 17.2608C3.71616 19.8829 4.47742 22.4486 5.90752 24.6464C6.90061 26.1727 8.18996 27.4842 9.69918 28.5031C11.9036 29.9833 14.4946 30.7827 17.1498 30.802C19.805 30.8212 22.4072 30.0595 24.6329 28.6114C26.1592 27.6183 27.4707 26.329 28.4896 24.8198C29.4901 23.3297 30.1844 21.6557 30.5322 19.8949C30.88 18.1342 30.8743 16.3218 30.5154 14.5633L30.5181 14.5416ZM23.7473 19.9583C23.7407 19.9835 23.7316 20.008 23.7202 20.0314C23.3939 20.9037 22.8912 21.6994 22.2435 22.3686C21.5957 23.0377 20.8169 23.5661 19.9556 23.9206C19.9125 23.9405 19.8682 23.9577 19.8229 23.9721C18.9586 24.3056 18.0351 24.4582 17.1094 24.4205C16.1838 24.3827 15.2757 24.1555 14.4415 23.7527L14.4063 23.7879V23.7364C12.8272 22.9607 11.612 21.6008 11.0181 19.9448C10.9775 19.8364 10.9396 19.7254 10.9071 19.6144C10.7142 18.9795 10.6156 18.3197 10.6146 17.6562C10.6127 16.7745 10.7848 15.9011 11.1211 15.086C11.1961 14.901 11.2811 14.7202 11.3756 14.5444C12.0404 13.2548 13.1032 12.2139 14.4063 11.576C14.6024 11.4746 14.804 11.3842 15.0102 11.3052C16.4046 10.7824 17.9324 10.7338 19.3571 11.1671C19.5169 11.2158 19.6713 11.2673 19.8229 11.3296C21.3675 11.9257 22.6389 13.0689 23.3952 14.5416C23.4273 14.5968 23.4562 14.6538 23.4819 14.7123C23.8742 15.5246 24.1003 16.4071 24.1468 17.308C24.1933 18.2088 24.0593 19.1099 23.7527 19.9583H23.7473Z" fill="#9D9F9F" stroke="#9D9F9F" stroke-miterlimit="10"/>
<path fill-rule="evenodd" clip-rule="evenodd" d="M24.1562 17.6562C24.1576 18.4413 24.021 19.2205 23.7527 19.9583C23.7461 19.9835 23.737 20.008 23.7256 20.0314C23.3987 20.9043 22.8952 21.7002 22.2464 22.3694C21.5977 23.0386 20.8178 23.5667 19.9556 23.9206C19.9125 23.9405 19.8682 23.9577 19.8229 23.9721C18.9586 24.3056 18.0351 24.4582 17.1094 24.4205C16.1838 24.3827 15.2757 24.1555 14.4414 23.7527C14.4288 23.7495 14.4168 23.744 14.4062 23.7364C12.8271 22.9607 11.612 21.6008 11.0181 19.9448C10.9775 19.8364 10.9396 19.7254 10.9071 19.6144C10.7142 18.9795 10.6156 18.3197 10.6146 17.6562C10.6127 16.7745 10.7848 15.9011 11.121 15.086C11.1961 14.901 11.2811 14.7202 11.3756 14.5444C12.0404 13.2548 13.1031 12.2139 14.4062 11.576C14.6024 11.4746 14.804 11.3842 15.0102 11.3052C16.4045 10.7824 17.9323 10.7339 19.3571 11.1671C19.5169 11.2158 19.6712 11.2673 19.8229 11.3296C21.3674 11.9257 22.6389 13.0689 23.3952 14.5417C23.4273 14.5968 23.4562 14.6538 23.4819 14.7123C23.9273 15.6296 24.1579 16.6364 24.1562 17.6562Z" stroke="#9D9F9F" stroke-miterlimit="10"/>
<path fill-rule="evenodd" clip-rule="evenodd" d="M14.4062 23.7364V23.7879L14.4415 23.7527C14.4288 23.7495 14.4169 23.744 14.4062 23.7364V23.7364Z" stroke="#9D9F9F" stroke-miterlimit="10"/>
<path d="M14.4415 23.7527L14.4062 23.7879V23.7364C14.4169 23.744 14.4288 23.7495 14.4415 23.7527Z" fill="#9D9F9F"/>
<path d="M19.8229 30.5452V33.2968C18.0273 33.5823 16.1967 33.5668 14.4062 33.2508V30.491C16.1898 30.8727 18.032 30.8911 19.8229 30.5452Z" fill="#9D9F9F"/>
<path d="M19.8229 1.20312V3.95479C18.032 3.60881 16.1898 3.62723 14.4062 4.00895V1.24917C16.1967 0.933207 18.0273 0.917647 19.8229 1.20312Z" fill="#9D9F9F"/>
<path d="M9.70188 6.01041C8.19266 7.02929 6.90331 8.34075 5.91022 9.86707L3.96564 7.92249C5.00739 6.43495 6.29082 5.13229 7.76272 4.06853L9.70188 6.01041Z" fill="#9D9F9F"/>
<path d="M30.4314 26.7373C29.3735 28.2117 28.0764 29.4988 26.5937 30.5452L24.6492 28.6006C26.1755 27.6075 27.4869 26.3182 28.5058 24.8089L30.4314 26.7373Z" fill="#9D9F9F"/>
<path d="M3.70834 17.25C3.70586 18.1596 3.79662 19.0672 3.97918 19.9583H1.22751C0.924162 18.1655 0.924162 16.3345 1.22751 14.5416H3.98189C3.79841 15.4327 3.70676 16.3402 3.70834 17.25Z" fill="#9D9F9F"/>
<path d="M33.5 17.25C33.5 18.1575 33.4239 19.0635 33.2725 19.9583H30.5181C30.8829 18.1712 30.8829 16.3288 30.5181 14.5416H33.2725C33.4239 15.4365 33.5 16.3424 33.5 17.25Z" fill="#9D9F9F"/>
<path d="M9.70188 28.4895L7.76271 30.4287C6.28851 29.3716 5.00146 28.0754 3.9548 26.5937L5.89938 24.6491C6.89735 26.1706 8.19035 27.4765 9.70188 28.4895Z" fill="#9D9F9F"/>
<path d="M14.4415 23.7527L14.4062 23.7879V23.7364C14.4169 23.744 14.4288 23.7495 14.4415 23.7527Z" fill="#9D9F9F"/>
<path d="M30.4314 7.7627L28.4896 9.70186C27.4707 8.19264 26.1592 6.90329 24.6329 5.9102L26.5937 3.95479C28.0764 5.00121 29.3735 6.28827 30.4314 7.7627Z" fill="#9D9F9F"/>
</svg>
