<svg width="125" height="39" viewBox="0 0 125 39" fill="none" xmlns="http://www.w3.org/2000/svg">
<path d="M13.728 38C12.416 35.216 11.12 32.32 9.84 29.312C8.56 26.304 7.344 23.328 6.192 20.384C5.04 17.44 3.968 14.624 2.976 11.936C2.016 9.248 1.184 6.848 0.48 4.736H8.736C9.376 6.656 10.064 8.736 10.8 10.976C11.568 13.184 12.336 15.392 13.104 17.6C13.904 19.808 14.672 21.92 15.408 23.936C16.144 25.952 16.832 27.696 17.472 29.168C18.08 27.696 18.752 25.952 19.488 23.936C20.256 21.92 21.024 19.808 21.792 17.6C22.592 15.392 23.36 13.184 24.096 10.976C24.864 8.736 25.568 6.656 26.208 4.736H34.176C33.44 6.848 32.592 9.248 31.632 11.936C30.672 14.624 29.616 17.44 28.464 20.384C27.312 23.328 26.096 26.304 24.816 29.312C23.536 32.32 22.24 35.216 20.928 38H13.728Z" fill="#98898A"/>
<path d="M37.7606 6.464L44.9126 5.312V12.752H53.5046V18.704H44.9126V27.584C44.9126 29.088 45.1686 30.288 45.6806 31.184C46.2246 32.08 47.2966 32.528 48.8966 32.528C49.6646 32.528 50.4486 32.464 51.2486 32.336C52.0806 32.176 52.8326 31.968 53.5046 31.712L54.5126 37.28C53.6486 37.632 52.6886 37.936 51.6326 38.192C50.5766 38.448 49.2806 38.576 47.7446 38.576C45.7926 38.576 44.1766 38.32 42.8966 37.808C41.6166 37.264 40.5926 36.528 39.8246 35.6C39.0566 34.64 38.5126 33.488 38.1926 32.144C37.9046 30.8 37.7606 29.312 37.7606 27.68V6.464ZM68.0393 33.008C68.7433 33.008 69.4153 32.992 70.0553 32.96C70.6953 32.928 71.2073 32.88 71.5913 32.816V27.392C71.3033 27.328 70.8713 27.264 70.2953 27.2C69.7193 27.136 69.1913 27.104 68.7113 27.104C68.0393 27.104 67.3993 27.152 66.7913 27.248C66.2153 27.312 65.7033 27.456 65.2553 27.68C64.8073 27.904 64.4553 28.208 64.1993 28.592C63.9433 28.976 63.8153 29.456 63.8153 30.032C63.8153 31.152 64.1833 31.936 64.9193 32.384C65.6873 32.8 66.7273 33.008 68.0393 33.008ZM67.4633 12.08C69.5753 12.08 71.3353 12.32 72.7433 12.8C74.1513 13.28 75.2713 13.968 76.1033 14.864C76.9673 15.76 77.5753 16.848 77.9273 18.128C78.2793 19.408 78.4553 20.832 78.4553 22.4V37.28C77.4313 37.504 76.0073 37.76 74.1833 38.048C72.3593 38.368 70.1513 38.528 67.5593 38.528C65.9273 38.528 64.4393 38.384 63.0953 38.096C61.7833 37.808 60.6473 37.344 59.6873 36.704C58.7273 36.032 57.9913 35.168 57.4793 34.112C56.9673 33.056 56.7113 31.76 56.7113 30.224C56.7113 28.752 56.9993 27.504 57.5753 26.48C58.1833 25.456 58.9833 24.64 59.9753 24.032C60.9673 23.424 62.1033 22.992 63.3833 22.736C64.6633 22.448 65.9913 22.304 67.3672 22.304C68.2953 22.304 69.1113 22.352 69.8153 22.448C70.5513 22.512 71.1433 22.608 71.5913 22.736V22.064C71.5913 20.848 71.2233 19.872 70.4873 19.136C69.7513 18.4 68.4713 18.032 66.6473 18.032C65.4313 18.032 64.2313 18.128 63.0473 18.32C61.8633 18.48 60.8393 18.72 59.9753 19.04L59.0633 13.28C59.4793 13.152 59.9913 13.024 60.5993 12.896C61.2393 12.736 61.9273 12.608 62.6633 12.512C63.3993 12.384 64.1673 12.288 64.9673 12.224C65.7993 12.128 66.6313 12.08 67.4633 12.08ZM95.0025 38.48C92.9225 38.448 91.2265 38.224 89.9145 37.808C88.6345 37.392 87.6105 36.816 86.8425 36.08C86.1065 35.312 85.5945 34.4 85.3065 33.344C85.0505 32.256 84.9225 31.04 84.9225 29.696V1.904L92.0745 0.751999V28.256C92.0745 28.896 92.1225 29.472 92.2185 29.984C92.3145 30.496 92.4905 30.928 92.7465 31.28C93.0345 31.632 93.4345 31.92 93.9465 32.144C94.4585 32.368 95.1465 32.512 96.0105 32.576L95.0025 38.48ZM107.262 21.872C107.966 21.104 108.686 20.304 109.422 19.472C110.19 18.64 110.926 17.824 111.63 17.024C112.334 16.192 112.99 15.408 113.598 14.672C114.238 13.936 114.782 13.296 115.23 12.752H123.726C122.03 14.704 120.366 16.576 118.734 18.368C117.134 20.128 115.374 21.952 113.454 23.84C114.414 24.704 115.406 25.744 116.43 26.96C117.454 28.144 118.446 29.376 119.406 30.656C120.366 31.936 121.246 33.216 122.046 34.496C122.846 35.776 123.518 36.944 124.062 38H115.854C115.342 37.168 114.75 36.256 114.078 35.264C113.438 34.24 112.75 33.232 112.014 32.24C111.278 31.216 110.494 30.24 109.662 29.312C108.862 28.384 108.062 27.6 107.262 26.96V38H100.11V1.904L107.262 0.751999V21.872Z" fill="#995EB3"/>
</svg>
